<svg xmlns="http://www.w3.org/2000/svg" version="1.2" viewBox="0 0 24 24" width="24" height="24"><path d="m18.8 16l-0.4 3.6c-0.2 0.9-1.1 1.5-2.2 1.5h-5.7c-0.4 0-0.7-0.1-0.9-0.3l-2.5-4c-0.4-0.4-0.3-0.9 0.1-1.3 0.5-0.4 1.3-0.3 1.7 0.2l1 1.1v-8.4c0-0.5 0.5-1 1.2-1 0.8 0 1.1 0.7 1.1 1v5l5.1 0.4c1.1 0.3 1.8 1.2 1.5 2.2zm-12.4-5.6c-0.6 0-1.1-0.5-1.1-1v-1.2c0-7 11.6-7 11.6 0v1.2c0 0.5-0.5 1-1.2 1-0.6 0-1.1-0.5-1.1-1v-1.2c0-4-7-4-7 0v1.2c0 0.5-0.5 1-1.2 1z" fill="#1349b4" fill-opacity="0.85"></path></svg>