<svg xmlns="http://www.w3.org/2000/svg" viewBox="0 0 18 18" width="18" height="18">
	<path
    d="m15.76 12.99l-0.38 3.55c-0.22 0.92-1.17 1.46-2.27 1.46h-5.59c-0.38 0-0.74-0.04-0.95-0.3l-2.5-3.96c-0.32-0.39-0.26-0.91 0.13-1.24 0.5-0.43 1.33-0.37 1.74 0.13l0.96 1.17v-8.38c0-0.54 0.52-0.98 1.16-0.98 0.82 0 1.16 0.63 1.16 0.98l0.01 4.98 4.99 0.39c1.11 0.32 1.77 1.22 1.54 2.2zm-12.33-5.59c-0.63 0-1.15-0.45-1.15-0.99v-1.23c0-6.91 11.56-6.91 11.56 0v1.23c0 0.54-0.52 0.99-1.16 0.99-0.64 0-1.15-0.45-1.15-0.99v-1.23c0-3.95-6.94-3.95-6.94 0v1.23c0 0.54-0.52 0.99-1.16 0.99z"
    fill="black"
    fill-opacity="0.85"
  />
</svg>